<?xml version="1.0" standalone="no"?>
<!DOCTYPE svg PUBLIC "-//W3C//DTD SVG 20010904//EN"
 "http://www.w3.org/TR/2001/REC-SVG-20010904/DTD/svg10.dtd">
<svg version="1.0" xmlns="http://www.w3.org/2000/svg"
 width="209.000000pt" height="233.000000pt" viewBox="0 0 209.000000 233.000000"
 preserveAspectRatio="xMidYMid meet">

<g transform="translate(0.000000,233.000000) scale(0.100000,-0.100000)"
fill="#000000" stroke="none">
<path d="M950 2250 c-36 -4 -90 -13 -120 -18 -59 -11 -181 -64 -201 -88 -6 -8
-42 -34 -79 -59 -36 -24 -72 -57 -79 -72 l-13 -28 24 20 c12 11 27 26 31 33 4
6 13 12 18 12 6 0 23 11 37 25 42 39 153 104 168 98 8 -3 14 -1 14 5 0 9 32
18 90 26 14 1 35 6 47 10 13 4 38 8 55 8 18 0 38 5 44 9 7 6 16 4 23 -4 8 -10
33 -13 88 -11 59 1 82 -2 96 -14 10 -9 17 -11 17 -4 0 7 5 12 10 12 6 0 10 -7
10 -16 0 -10 6 -14 14 -11 8 3 25 -4 39 -16 30 -27 48 -32 58 -15 7 11 9 11 9
0 0 -7 5 -10 10 -7 6 4 9 3 8 -2 -4 -14 49 -63 64 -58 9 4 18 -6 26 -29 7 -19
22 -38 32 -41 11 -4 20 -14 20 -23 0 -10 3 -13 8 -7 9 12 52 16 52 4 0 -5 -6
-9 -12 -9 -9 0 -8 -3 2 -10 22 -14 6 -22 -47 -24 -62 -2 -74 -6 -96 -34 -10
-12 -23 -20 -28 -17 -5 4 -9 0 -9 -7 0 -8 -7 -23 -16 -34 -8 -10 -13 -14 -10
-7 4 6 2 14 -4 18 -6 3 -10 -3 -10 -15 0 -16 -4 -20 -16 -16 -11 4 -15 2 -11
-7 7 -19 -39 -90 -61 -94 -18 -2 -19 1 -10 45 6 26 15 52 20 59 5 6 11 24 14
40 3 15 9 30 15 31 5 2 9 10 9 17 0 7 15 36 34 64 23 33 28 47 16 38 -23 -16
-100 -111 -100 -123 0 -5 5 -2 10 6 5 8 10 11 10 5 0 -15 -16 -37 -25 -35 -5
1 -18 -28 -29 -64 -11 -36 -24 -66 -29 -66 -5 0 -5 10 -2 23 7 22 7 22 -9 2
-14 -19 -15 -17 -11 32 3 29 16 103 30 165 13 62 22 114 21 116 -5 4 -48 -128
-49 -145 0 -7 -6 -13 -14 -13 -8 0 -13 -12 -13 -34 0 -62 -11 -96 -31 -96 -11
0 -19 7 -19 16 0 8 -4 12 -10 9 -6 -4 -10 14 -10 47 0 38 3 49 10 38 8 -13 10
-13 10 2 0 9 6 19 13 22 6 3 -1 3 -16 -1 -27 -5 -29 -3 -27 23 4 55 0 237 -5
233 -2 -3 -7 -41 -11 -85 -3 -43 -8 -82 -11 -86 -2 -5 1 -8 7 -8 6 0 8 -5 5
-10 -4 -6 -8 -32 -11 -58 -9 -97 -15 -126 -32 -138 -23 -18 -33 -17 -26 1 4 8
2 15 -4 15 -5 0 -12 20 -14 45 -2 25 0 45 4 45 5 0 8 5 8 11 0 5 -4 8 -9 5 -8
-5 -27 26 -43 69 -3 11 -5 -5 -3 -35 2 -30 8 -68 14 -83 16 -42 14 -94 -4 -94
-8 0 -15 4 -15 9 0 5 -4 7 -9 4 -11 -7 -34 20 -27 32 3 6 -1 15 -9 22 -12 10
-13 16 -4 26 11 13 5 18 -15 15 -5 -1 -6 5 -3 14 4 8 2 15 -2 15 -5 0 -13 12
-19 28 -5 15 -19 38 -31 52 -17 19 -15 11 9 -35 17 -33 29 -70 27 -82 -2 -13
2 -24 11 -28 8 -3 12 -8 9 -11 -3 -3 -1 -19 3 -35 7 -23 5 -31 -6 -36 -7 -3
-14 -12 -14 -19 0 -12 -4 -11 -19 3 -26 25 -44 62 -37 78 2 7 -2 16 -10 19
-10 4 -12 2 -8 -6 5 -7 3 -8 -5 -4 -7 5 -10 13 -8 20 2 6 1 20 -4 31 -7 20 -8
20 -8 0 -1 -19 -1 -19 -15 0 -7 11 -15 25 -16 30 -5 18 -74 64 -95 64 -17 -1
-15 -3 7 -13 28 -12 98 -93 98 -113 0 -7 5 -13 10 -13 6 0 10 -9 10 -20 0 -11
5 -20 12 -20 6 0 9 -3 5 -6 -3 -4 1 -21 11 -38 17 -32 29 -103 13 -78 -11 19
-15 19 -35 3 -9 -8 -16 -10 -14 -5 2 5 -1 11 -7 13 -5 2 -18 17 -28 33 -9 16
-21 27 -26 24 -5 -3 -14 1 -21 9 -7 8 -9 15 -5 15 5 0 0 9 -10 20 -10 11 -21
17 -26 15 -4 -3 -11 1 -16 8 -12 20 -88 37 -121 27 -24 -7 -23 -8 15 -9 23 -1
48 -8 57 -16 8 -8 20 -15 26 -15 7 0 10 -7 7 -14 -4 -10 -1 -13 9 -9 7 3 14 0
14 -7 0 -6 5 -8 12 -4 8 5 9 2 5 -9 -4 -11 -1 -17 7 -17 7 0 18 -11 26 -24 7
-13 22 -27 33 -30 13 -3 18 -10 14 -20 -3 -8 -2 -18 3 -21 6 -4 10 -11 10 -16
0 -6 -5 -7 -12 -3 -6 4 -8 3 -4 -4 13 -22 -14 -22 -48 0 -38 24 -44 44 -23 68
6 8 0 4 -14 -8 -21 -18 -31 -21 -51 -13 -14 5 -28 16 -31 23 -3 8 -6 9 -6 1
-1 -6 -10 -9 -21 -6 -11 3 -18 8 -16 12 2 3 -19 6 -47 6 -35 0 -60 -6 -77 -19
-18 -13 -19 -16 -5 -10 29 12 98 9 126 -7 13 -7 26 -14 29 -14 32 -6 50 -18
41 -29 -6 -7 -8 -16 -5 -19 4 -3 -1 -13 -10 -22 -12 -12 -20 -13 -35 -5 -55
29 -180 -16 -194 -70 -5 -20 -2 -19 21 8 31 35 92 52 92 25 0 -14 2 -14 19 1
13 12 21 14 26 6 3 -5 11 -8 16 -5 5 4 9 1 9 -5 0 -6 4 -8 10 -5 6 3 10 2 10
-4 0 -5 -4 -12 -9 -15 -5 -3 -7 -14 -4 -24 3 -11 -1 -19 -9 -19 -51 -2 -138
-40 -138 -60 0 -17 5 -16 35 3 23 15 25 15 25 0 0 -10 -4 -14 -10 -11 -5 3
-10 1 -10 -6 0 -7 -3 -9 -7 -6 -3 4 -16 -2 -27 -12 -12 -11 -25 -19 -30 -18
-5 1 -10 -7 -11 -18 -1 -11 -5 -30 -9 -43 -6 -18 -10 -20 -21 -9 -15 16 -26
95 -14 103 5 3 9 10 9 15 0 6 -4 8 -9 4 -13 -8 -18 32 -10 80 4 22 4 46 0 54
-15 26 -21 -103 -9 -189 6 -47 11 -111 10 -143 -3 -83 13 -106 22 -33 4 31 12
56 17 56 5 0 9 8 10 18 0 10 3 12 6 4 2 -7 13 -17 24 -23 17 -9 19 -7 14 13
-7 28 43 133 65 134 8 1 32 8 52 17 46 21 121 14 161 -15 15 -10 38 -20 50
-22 12 -1 40 -7 62 -13 22 -6 54 -14 70 -18 l30 -8 -26 -7 c-16 -5 -61 0 -115
11 -49 11 -97 20 -106 21 -10 1 -18 9 -18 17 0 11 -4 10 -15 -5 -8 -10 -15
-15 -15 -10 0 5 -8 -2 -18 -15 -21 -27 -47 -88 -40 -94 12 -12 46 10 63 41 13
24 22 31 29 24 5 -5 18 -10 28 -10 22 0 23 -13 3 -33 -11 -12 -12 -17 -2 -20
7 -3 1 -9 -13 -15 -14 -5 -34 -6 -46 -2 -11 5 -27 4 -35 -1 -22 -14 -52 -11
-43 4 5 8 2 8 -9 -2 -9 -7 -17 -21 -18 -30 0 -10 -2 -11 -6 -3 -8 21 -19 14
-48 -30 l-28 -43 32 28 c18 15 36 27 41 27 18 0 21 -21 6 -50 -8 -17 -10 -28
-5 -25 5 4 9 1 9 -5 0 -6 11 1 25 15 29 32 104 53 116 33 12 -19 -3 -29 -56
-34 -26 -2 -59 -13 -72 -24 -31 -24 -66 -87 -59 -106 3 -8 -1 -14 -8 -14 -13
0 -27 -31 -32 -75 -5 -35 8 -135 17 -135 5 0 9 9 9 20 0 13 7 20 20 20 20 0
28 16 10 22 -5 2 -13 18 -16 37 -6 31 -5 34 13 29 19 -5 20 -2 15 38 -4 34 -1
44 10 44 16 0 38 40 38 68 0 14 2 14 9 3 5 -8 6 -21 3 -30 -5 -14 -4 -14 12
-2 12 10 14 17 6 25 -5 5 -10 17 -10 26 1 11 6 8 21 -9 l20 -25 -6 27 c-5 17
-3 27 4 27 6 0 11 -9 11 -20 0 -11 7 -20 15 -20 8 0 15 5 15 11 0 5 -5 7 -10
4 -16 -10 -12 11 5 25 13 11 15 8 15 -14 0 -14 5 -26 11 -26 6 0 8 9 4 23 -3
12 -3 18 2 12 13 -16 32 -16 64 0 16 9 43 14 60 11 16 -2 29 0 29 5 0 5 5 9
10 9 6 0 10 -7 10 -15 0 -8 7 -15 15 -15 23 0 18 -19 -7 -24 -13 -3 -49 -7
-81 -11 -76 -7 -81 -8 -89 -20 -5 -6 -8 -5 -8 4 0 9 -4 10 -12 4 -7 -6 -30
-13 -50 -17 -21 -4 -38 -11 -38 -17 0 -5 -8 -9 -17 -7 -11 2 -17 -2 -15 -11 1
-7 -3 -19 -9 -27 -23 -28 -3 -23 30 6 38 35 51 38 51 10 0 -11 6 -20 13 -20 6
0 22 -3 33 -6 19 -5 21 -2 16 22 -5 28 -5 28 14 10 17 -18 19 -18 22 -3 2 9 8
18 13 18 5 1 12 2 17 4 37 10 89 19 100 17 6 -2 12 4 12 13 0 8 4 15 9 15 5 0
8 -8 7 -17 0 -10 5 -17 12 -16 6 2 12 -3 12 -11 0 -8 6 -17 13 -19 9 -4 9 -6
-1 -6 -7 -1 -22 4 -32 9 -15 8 -18 7 -14 -4 5 -13 -17 -20 -91 -29 -11 -1 -25
-6 -32 -10 -7 -4 -28 -8 -48 -9 -20 -1 -38 -5 -41 -10 -3 -5 -12 -4 -19 2 -9
7 -15 8 -19 1 -4 -6 -12 -8 -19 -6 -7 3 -19 -12 -29 -31 -15 -34 -15 -35 1
-20 27 24 41 19 41 -14 0 -31 6 -36 29 -21 12 8 12 12 -2 26 -10 9 -14 21 -11
27 4 7 9 6 14 -2 5 -9 9 -9 14 -1 11 17 23 13 29 -9 3 -12 0 -20 -8 -20 -8 0
-11 -7 -8 -19 4 -15 -2 -21 -27 -26 -33 -7 -70 -33 -70 -48 0 -4 9 -3 19 2 40
22 34 -29 -9 -83 -14 -18 -13 -18 20 -11 19 4 41 12 48 17 6 6 12 7 12 3 0 -5
9 0 21 11 16 15 22 16 29 5 6 -11 9 -10 13 5 4 15 5 15 6 -5 1 -23 1 -23 36 8
20 17 40 31 45 31 5 0 21 5 37 12 15 6 31 11 35 10 4 -1 18 2 31 7 19 7 23 6
24 -10 2 -20 -46 -52 -79 -55 -15 -1 -102 -38 -150 -65 -23 -12 -38 -12 -38 1
0 6 6 10 14 10 7 0 19 7 26 15 8 9 8 15 2 15 -6 0 -13 -6 -15 -12 -4 -10 -6
-10 -6 0 -1 19 -21 14 -22 -5 0 -15 -2 -15 -9 2 -5 11 -9 14 -9 7 -1 -7 4 -22
9 -32 7 -13 7 -21 0 -25 -5 -3 -10 -1 -10 6 0 8 -4 8 -15 -1 -8 -7 -13 -16
-10 -20 3 -5 1 -11 -5 -15 -5 -3 -10 -16 -10 -28 0 -21 1 -21 13 2 18 36 36
37 51 1 l13 -32 11 30 c11 32 48 60 54 41 2 -6 23 8 46 30 30 29 52 41 72 41
22 0 30 5 31 18 0 9 3 12 5 7 2 -6 20 -9 39 -7 50 6 46 -20 -7 -44 -23 -10
-42 -17 -43 -15 0 2 -11 -2 -25 -9 -14 -8 -28 -13 -32 -12 -5 1 -8 -2 -8 -8 0
-5 -6 -10 -14 -10 -7 0 -21 -10 -29 -23 -13 -17 -18 -19 -25 -8 -7 9 -12 10
-16 2 -4 -6 -25 -20 -47 -31 -38 -20 -56 -49 -22 -36 24 9 33 -12 27 -64 -5
-40 -4 -43 9 -28 19 24 27 13 28 -41 0 -25 3 -39 7 -31 15 33 30 18 37 -36 6
-48 8 -53 19 -38 12 16 14 15 29 -7 10 -13 18 -37 18 -54 1 -17 3 -22 6 -12
10 39 63 4 63 -42 0 -16 6 -33 13 -40 11 -8 13 -5 9 19 -2 17 -1 30 3 30 8 0
65 -14 126 -32 33 -9 107 2 172 27 14 6 17 1 17 -31 0 -35 1 -37 15 -18 8 10
15 28 15 40 0 11 11 31 24 43 l24 22 11 -28 c10 -27 10 -27 8 12 -1 30 4 47
23 68 l25 29 7 -24 c5 -17 7 -13 6 17 -1 22 2 51 7 64 l8 25 12 -30 13 -29 10
26 c6 15 8 36 5 47 -6 26 11 36 30 17 9 -8 17 -15 20 -15 7 0 -5 60 -14 66
-15 9 -10 44 5 44 8 0 18 -4 21 -10 3 -5 10 -10 15 -10 5 0 2 20 -7 44 -14 37
-15 47 -4 60 17 20 26 20 46 0 9 -9 19 -14 22 -10 10 10 -10 59 -26 64 -8 3
-11 0 -7 -7 10 -16 -10 -14 -45 4 -16 9 -35 13 -41 9 -8 -5 -9 -2 -5 9 4 12 1
17 -11 17 -10 0 -38 10 -63 22 -24 12 -53 23 -63 25 -43 7 -65 53 -26 53 11 0
20 -4 20 -9 0 -5 8 -7 19 -4 23 6 75 -20 115 -58 17 -16 35 -29 40 -29 5 0 17
-7 26 -15 16 -14 17 -14 13 10 -6 28 6 32 37 13 25 -16 33 -7 24 26 -5 21 -10
25 -29 20 -26 -7 -69 12 -60 27 4 5 18 6 33 3 26 -6 26 -6 7 9 -19 16 -18 16
23 17 23 0 54 -7 67 -16 36 -23 31 -1 -9 41 -22 23 -32 42 -29 55 5 18 6 18
30 3 14 -10 38 -16 52 -15 25 2 27 0 23 -35 -4 -33 -3 -36 10 -25 13 10 17 9
24 -5 14 -31 21 97 8 137 -14 39 -10 52 11 43 11 -3 13 -1 9 10 -8 21 -34 30
-34 12 0 -10 -11 -15 -35 -15 -19 0 -35 5 -35 11 0 7 10 9 25 5 16 -4 25 -2
25 5 0 18 -42 99 -52 99 -4 0 -8 7 -8 16 0 12 -7 15 -25 12 -14 -3 -25 -1 -25
3 0 5 -3 8 -7 8 -24 -4 -33 4 -33 26 l0 25 36 -21 c30 -16 39 -18 51 -7 14 11
15 10 9 -8 -4 -15 -2 -23 8 -27 11 -5 16 3 18 31 l3 37 32 -32 c45 -47 49 -41
9 15 -18 26 -39 46 -45 45 -6 -2 -11 2 -11 7 0 6 -7 10 -15 10 -18 0 -20 17
-3 22 8 3 4 9 -10 17 -17 9 -22 20 -22 51 0 31 -3 38 -15 34 -10 -4 -15 0 -15
12 0 13 -3 15 -11 7 -6 -6 -18 -9 -25 -6 -8 3 -14 1 -14 -4 0 -6 -14 -10 -31
-11 -23 0 -29 3 -27 16 2 9 10 17 18 17 8 1 32 5 52 9 47 10 138 -17 169 -50
17 -18 24 -40 27 -83 4 -57 5 -59 27 -51 20 7 24 5 29 -16 4 -14 11 -22 16
-19 9 6 30 -55 30 -88 0 -10 -7 -34 -15 -55 l-15 -37 20 24 c23 27 27 113 8
184 -10 38 -9 51 7 88 11 27 20 84 24 149 5 87 2 122 -15 200 -54 240 -147
387 -324 507 -61 41 -200 100 -260 109 -61 9 -211 12 -270 4z m675 -336 c8 -4
15 -12 15 -20 0 -8 5 -14 10 -14 6 0 10 -5 10 -10 0 -7 -6 -7 -20 0 -11 6 -20
7 -20 3 0 -5 9 -14 20 -21 31 -19 26 -42 -7 -33 -33 9 -147 -6 -151 -19 -2 -6
-10 -10 -18 -10 -8 0 -14 -5 -14 -11 0 -5 5 -7 10 -4 16 10 11 -1 -7 -16 -11
-10 -14 -10 -9 -1 8 14 5 15 -18 6 -9 -3 -16 -11 -16 -17 0 -6 -16 -25 -35
-43 -19 -17 -35 -28 -35 -23 0 5 -5 8 -12 6 -24 -5 -18 35 13 83 18 27 35 50
39 50 4 0 12 11 18 25 8 17 17 23 29 19 14 -5 15 -4 4 4 -11 8 -9 15 13 37 21
21 37 27 74 28 26 1 53 8 61 15 13 12 16 11 23 -7 4 -12 14 -24 23 -27z
m-1004 -121 c13 -16 12 -17 -3 -4 -10 7 -18 15 -18 17 0 8 8 3 21 -13z m1029
-20 c6 7 11 8 10 2 -4 -21 1 -30 9 -17 5 9 10 1 15 -27 5 -30 10 -39 21 -35 8
4 15 2 15 -3 0 -5 10 -19 21 -32 14 -15 18 -26 11 -33 -6 -6 -14 -3 -23 10
-23 32 -77 54 -127 51 -26 -1 -52 -6 -59 -12 -7 -5 -17 -6 -23 -2 -5 3 -10 0
-10 -7 -1 -16 -50 42 -50 59 0 7 11 15 25 19 14 4 23 9 20 12 -3 3 12 13 32
23 36 16 40 16 69 -1 24 -14 35 -15 44 -7z m-597 10 c-7 -2 -19 -2 -25 0 -7 3
-2 5 12 5 14 0 19 -2 13 -5z m-107 -18 c-11 -8 -27 -15 -35 -15 -9 1 -2 7 14
15 39 18 44 18 21 0z m199 -5 c3 -6 -1 -7 -9 -4 -18 7 -21 14 -7 14 6 0 13 -4
16 -10z m-285 -10 c0 -5 -2 -10 -4 -10 -3 0 -8 5 -11 10 -3 6 -1 10 4 10 6 0
11 -4 11 -10z m146 -6 c22 -15 24 -15 18 0 -3 9 -1 16 5 16 10 0 15 -13 12
-32 0 -4 10 -3 24 2 20 7 25 6 25 -5 0 -8 7 -15 16 -15 23 0 54 -38 55 -69 1
-17 3 -20 6 -8 2 9 9 17 15 17 5 0 7 -7 4 -16 -4 -10 1 -25 10 -35 10 -12 14
-25 9 -36 -4 -10 -7 -36 -8 -58 0 -22 -7 -46 -15 -54 -28 -29 -122 -41 -249
-32 -7 1 -29 15 -50 33 l-38 32 36 -38 c41 -42 80 -54 189 -57 39 0 56 -4 42
-7 -13 -4 -23 -11 -22 -17 1 -5 -3 -11 -9 -13 -6 -2 -11 5 -12 15 0 10 -3 13
-6 6 -2 -7 -9 -13 -14 -13 -6 0 -7 5 -4 10 3 6 -1 10 -9 10 -9 0 -16 -6 -16
-13 0 -8 -12 -13 -30 -12 -16 0 -30 4 -30 9 0 4 9 6 20 3 11 -3 20 -2 20 2 0
4 -20 12 -45 19 -25 6 -62 28 -84 47 -21 19 -44 35 -50 35 -8 0 -10 11 -5 35
4 22 2 35 -5 35 -6 0 -8 -6 -5 -14 3 -8 1 -17 -5 -21 -6 -3 -11 1 -11 9 0 9
-6 16 -12 16 -7 0 -5 5 5 11 9 5 17 19 17 29 0 11 4 20 10 20 5 0 7 7 4 15 -7
17 22 85 36 85 6 0 10 6 10 14 0 21 26 40 36 25 4 -7 2 -15 -4 -17 -7 -2 -12
-9 -12 -15 0 -6 -6 -18 -14 -26 -18 -21 -34 -112 -25 -137 6 -16 8 -14 8 9 2
64 23 114 70 165 26 29 51 52 55 52 4 0 18 -7 32 -16z m218 -30 c4 -9 4 -19 1
-22 -7 -8 -35 19 -29 29 8 14 21 11 28 -7z m256 -47 c0 -17 -55 -67 -74 -67
-11 0 -16 3 -13 6 3 4 2 15 -4 25 -7 14 -6 19 2 19 7 0 9 3 6 7 -4 4 5 19 20
35 l27 29 18 -23 c10 -13 18 -27 18 -31z m-660 26 c0 -14 -19 -38 -25 -32 -8
8 5 39 16 39 5 0 9 -3 9 -7z m470 -29 c0 -8 -4 -12 -10 -9 -5 3 -10 13 -10 21
0 8 5 12 10 9 6 -3 10 -13 10 -21z m-35 -6 c13 -41 15 -58 7 -58 -7 0 -32 57
-32 73 0 17 18 5 25 -15z m369 -10 c-2 -4 0 -10 6 -13 6 -4 10 -3 9 2 -3 19 2
23 20 13 13 -7 17 -16 13 -32 -5 -19 -4 -20 10 -7 9 7 13 18 10 23 -3 5 0 6 6
2 6 -4 9 -13 5 -21 -3 -8 0 -15 7 -15 6 0 9 -4 6 -8 -6 -11 40 -53 48 -45 3 4
6 -1 6 -10 0 -9 5 -17 11 -17 5 0 7 -4 4 -10 -3 -5 -2 -18 4 -28 6 -11 6 -24
1 -32 -10 -17 -9 -18 -43 42 -18 30 -42 55 -72 71 -25 14 -45 21 -45 15 0 -6
-3 -8 -6 -5 -4 3 -15 2 -25 -3 -13 -7 -22 -6 -33 6 -15 14 -16 14 -16 -2 0
-13 -3 -14 -15 -4 -23 19 -14 68 13 75 13 3 28 3 34 -1 6 -4 8 -3 5 3 -4 7 3
10 17 9 13 0 22 -4 20 -8z m-847 -20 c-3 -8 -6 -5 -6 6 -1 11 2 17 5 13 3 -3
4 -12 1 -19z m-50 -13 c-4 -8 -11 -15 -17 -15 -7 0 -7 6 0 21 13 23 26 19 17
-6z m588 15 c3 -5 1 -10 -4 -10 -6 0 -11 5 -11 10 0 6 2 10 4 10 3 0 8 -4 11
-10z m-745 -11 c0 -6 6 -9 13 -6 6 2 21 -7 31 -21 17 -22 17 -25 3 -19 -15 5
-16 3 -7 -12 9 -19 8 -19 -30 -4 -39 16 -51 35 -30 48 6 4 8 11 5 16 -4 5 -1
9 4 9 6 0 11 -5 11 -11z m800 -4 c0 -8 -2 -15 -4 -15 -2 0 -6 7 -10 15 -3 8
-1 15 4 15 6 0 10 -7 10 -15z m140 -41 c0 -13 -10 -25 -25 -32 -37 -17 -44
-15 -42 11 1 24 19 47 36 47 6 0 11 6 11 13 0 21 20 -16 20 -39z m-748 8 c-10
-3 -10 -7 0 -20 10 -12 10 -14 1 -8 -9 5 -12 0 -10 -15 1 -12 -3 -24 -10 -26
-10 -4 -11 15 -4 74 0 7 8 10 18 6 11 -4 13 -8 5 -11z m528 -42 c5 -3 2 -14
-7 -25 -15 -20 -15 -20 -12 0 2 11 0 25 -4 32 -4 6 -4 19 0 30 7 16 8 15 11
-7 2 -14 8 -27 12 -30z m32 25 c-2 -14 -6 -25 -7 -25 -1 0 -5 11 -7 25 -3 16
-1 25 7 25 8 0 10 -9 7 -25z m-640 -7 c-7 -7 -12 -8 -12 -2 0 14 12 26 19 19
2 -3 -1 -11 -7 -17z m29 -5 c-8 -15 -10 -15 -11 -2 0 17 10 32 18 25 2 -3 -1
-13 -7 -23z m646 -3 c2 -11 -2 -20 -8 -20 -5 0 -7 -5 -3 -12 5 -8 2 -9 -11 -4
-14 5 -15 4 -7 -7 9 -10 7 -17 -6 -28 -10 -9 -23 -14 -30 -11 -12 4 -8 10 31
53 10 12 16 27 13 34 -5 14 4 28 13 20 2 -3 6 -14 8 -25z m51 0 c3 -7 0 -10
-7 -6 -7 5 -11 -2 -11 -19 0 -39 -18 -65 -43 -64 l-22 0 22 9 c23 9 40 51 28
69 -8 14 4 33 18 28 6 -2 13 -9 15 -17z m-819 -34 c7 -8 9 -25 5 -41 -5 -20
-9 -23 -15 -13 -5 7 -9 8 -9 3 0 -6 -12 -10 -27 -9 -22 1 -29 7 -34 32 -3 17
-4 34 -1 37 11 11 70 4 81 -9z m1051 -1 c0 -5 5 -3 10 5 8 12 10 12 10 -5 0
-17 2 -17 10 -5 8 12 10 12 11 -5 0 -11 3 -15 6 -8 3 8 12 4 27 -12 13 -14 27
-21 31 -17 4 4 5 -3 2 -16 -3 -12 -1 -20 4 -16 5 3 9 -13 9 -35 0 -23 4 -41 9
-41 7 0 8 -32 2 -72 -2 -15 -21 -8 -21 7 0 8 -4 15 -10 15 -5 0 -10 4 -10 10
0 15 -48 82 -70 97 -11 8 -20 22 -20 31 0 13 -2 14 -9 4 -9 -15 -56 -13 -56 3
0 6 -3 15 -6 20 -4 6 -3 20 2 33 7 17 15 22 39 20 16 -1 30 -7 30 -13z m-202
-31 c-4 -3 -12 5 -18 18 -12 22 -12 22 6 6 10 -10 15 -20 12 -24z m99 22 c-3
-7 -1 -18 5 -24 17 -17 -1 -32 -38 -32 -36 0 -42 8 -22 28 9 9 9 12 -2 13 -8
0 -1 7 15 14 39 18 48 18 42 1z m-757 -11 c19 -23 1 -39 -21 -19 -10 9 -16 21
-13 25 8 13 20 11 34 -6z m-45 -23 c15 -8 16 -11 5 -12 -18 0 -40 19 -40 35 0
7 3 6 8 -1 4 -6 16 -16 27 -22z m-275 -22 c0 -5 -4 -10 -10 -10 -5 0 -10 5
-10 10 0 6 5 10 10 10 6 0 10 -4 10 -10z m-30 -10 c0 -5 -4 -10 -10 -10 -5 0
-10 5 -10 10 0 6 5 10 10 10 6 0 10 -4 10 -10z m380 0 c0 -5 -7 -10 -15 -10
-8 0 -15 5 -15 10 0 6 7 10 15 10 8 0 15 -4 15 -10z m415 0 c-3 -5 -16 -15
-28 -21 -22 -12 -22 -12 -3 10 19 21 43 30 31 11z m75 1 c0 -12 -20 -25 -27
-18 -7 7 6 27 18 27 5 0 9 -4 9 -9z m200 -11 c-20 -13 -33 -13 -25 0 3 6 14
10 23 10 15 0 15 -2 2 -10z m-1136 -57 c4 -10 4 -14 0 -10 -4 4 -16 0 -26 -10
-23 -20 -24 -6 -1 19 20 22 19 22 27 1z m1044 -10 c-7 -37 -110 -67 -137 -40
-10 10 1 16 56 34 85 27 85 27 81 6z m-507 -18 c10 7 13 -8 2 -18 -9 -10 -33
13 -33 32 1 14 2 14 11 -2 6 -9 14 -15 20 -12z m819 -34 c0 -11 -4 -10 -15 5
-8 10 -14 26 -14 34 0 11 3 10 14 -4 8 -11 15 -27 15 -35z m-213 -3 c-3 -8 -6
-5 -6 6 -1 11 2 17 5 13 3 -3 4 -12 1 -19z m-507 6 c-35 -7 -98 -9 -94 -2 3 5
29 7 57 7 29 -1 45 -3 37 -5z m83 -1 c-7 -2 -19 -2 -25 0 -7 3 -2 5 12 5 14 0
19 -2 13 -5z m-333 -36 c12 3 20 0 20 -6 0 -7 5 -9 10 -6 6 3 10 0 10 -8 0
-19 -29 -26 -101 -24 -40 2 -63 7 -69 17 -13 22 -6 26 49 25 28 0 51 5 52 10
0 6 3 5 5 -1 3 -7 14 -10 24 -7z m275 -4 c17 -3 35 -9 41 -14 6 -5 18 -7 26
-4 8 3 22 -3 32 -14 18 -20 18 -21 -8 -31 -33 -12 -200 -6 -238 9 -36 14 -35
25 5 50 32 20 44 21 142 4z m526 -17 c19 -3 28 -10 24 -17 -4 -6 -16 -9 -26
-6 -10 3 -21 1 -24 -3 -10 -16 -45 -6 -45 12 0 10 -4 18 -10 18 -5 0 -10 5
-10 11 0 7 10 9 25 5 17 -4 25 -2 26 6 1 7 3 6 6 -3 2 -9 18 -19 34 -23z
m-146 12 c16 1 36 -2 44 -7 18 -12 7 -40 -16 -40 -10 1 -44 -2 -75 -5 -48 -4
-58 -2 -58 10 0 9 7 22 15 30 13 14 15 12 16 -13 l0 -28 11 25 c6 14 10 29 9
33 -1 5 4 5 11 1 7 -5 26 -7 43 -6z m-118 -40 c-3 -8 -6 -5 -6 6 -1 11 2 17 5
13 3 -3 4 -12 1 -19z m481 -3 c-3 -3 -9 2 -12 12 -6 14 -5 15 5 6 7 -7 10 -15
7 -18z m-1152 -44 c12 10 13 9 8 -6 -7 -17 -6 -17 19 0 15 9 33 15 42 12 8 -4
17 -2 21 4 4 6 11 6 20 -2 8 -6 23 -9 33 -6 19 5 36 -16 26 -32 -2 -5 -36 -9
-75 -9 -38 0 -79 -3 -90 -7 -11 -3 -20 -2 -20 3 0 5 -2 22 -4 38 -2 16 -1 21
1 11 4 -15 7 -16 19 -6z m329 9 c17 -7 16 -9 -10 -9 -16 0 -39 4 -50 9 -17 7
-16 9 10 9 17 0 39 -4 50 -9z m374 -20 c1 18 61 22 73 5 5 -6 8 -5 8 3 0 9 11
6 33 -10 17 -13 34 -22 37 -20 3 1 5 -4 5 -10 0 -7 -9 -13 -20 -13 -11 -1 -26
-4 -33 -8 -6 -5 -12 -4 -12 2 0 6 -17 11 -37 11 -61 0 -87 6 -91 20 -3 7 0 10
7 6 7 -5 11 1 12 16 0 22 1 22 9 3 6 -14 9 -15 9 -5z m-267 -16 c20 -4 45 -14
55 -23 10 -10 25 -15 32 -13 8 3 11 0 7 -7 -4 -6 -13 -11 -21 -11 -8 0 -17 -5
-21 -11 -5 -9 7 -10 45 -5 36 5 51 4 46 -4 -4 -6 -57 -10 -143 -9 -90 1 -128
5 -112 10 21 7 19 8 -11 5 -34 -4 -59 14 -59 44 0 22 106 36 182 24z m339 -83
c0 -9 3 -11 5 -4 6 14 31 6 55 -18 25 -25 13 -29 -46 -18 -28 6 -64 12 -81 13
-18 2 -40 9 -50 14 -17 10 -16 12 13 24 42 18 103 12 104 -11z m161 -32 c16
-17 26 -34 22 -37 -3 -4 -9 -1 -11 6 -3 6 -9 10 -14 6 -5 -3 -9 0 -9 7 0 9 -3
10 -11 2 -16 -16 -49 -4 -49 19 0 15 5 18 21 13 15 -5 19 -4 15 4 -14 22 7 10
36 -20z m-713 -33 c-1 -17 -2 -17 -6 -3 -2 9 -9 17 -14 17 -5 0 -9 7 -9 16 0
14 3 14 15 4 8 -7 14 -22 14 -34z m262 23 c5 -7 9 -10 9 -5 0 6 5 5 12 -2 9
-9 7 -16 -7 -32 l-19 -21 44 5 c38 4 42 3 25 -6 -29 -17 -234 -17 -260 0 -18
12 -14 13 25 7 116 -16 135 -17 129 -11 -3 4 -23 9 -44 11 -20 3 -41 7 -46 10
-4 3 -25 6 -46 7 -35 1 -52 11 -53 31 0 5 5 5 10 2 6 -3 10 0 10 7 0 20 198
17 211 -3z m249 -39 c0 -13 1 -13 10 0 8 12 10 12 10 1 0 -11 3 -11 15 -1 12
10 15 10 15 -4 0 -9 6 -16 13 -16 8 0 22 -9 32 -20 10 -11 13 -20 7 -20 -7 0
-12 6 -13 13 0 10 -2 10 -6 0 -6 -16 -40 -16 -118 1 -59 12 -82 34 -54 52 9 5
10 2 6 -12 -7 -18 -6 -18 8 1 14 17 17 18 25 5 8 -13 10 -13 10 2 0 21 40 20
40 -2z m167 -32 c-3 -8 -6 -5 -6 6 -1 11 2 17 5 13 3 -3 4 -12 1 -19z m57 -10
c14 -18 26 -28 26 -22 0 6 7 11 15 11 10 0 14 -6 10 -15 -3 -9 0 -19 7 -23 10
-6 8 -13 -9 -30 l-22 -22 -19 32 c-11 18 -23 28 -26 23 -11 -18 -76 10 -76 33
0 4 14 5 31 3 28 -4 30 -3 24 19 -8 33 9 29 39 -9z m-734 -33 c0 -8 -8 -15
-17 -15 -15 0 -16 -2 -3 -10 8 -5 13 -10 10 -11 -3 0 -16 -2 -30 -4 -55 -8
-68 -12 -170 -40 -11 -4 -16 5 -17 30 -2 19 1 35 7 35 5 0 7 -7 3 -16 -5 -15
-3 -15 20 1 14 9 36 18 49 20 13 1 31 6 41 10 9 4 17 3 17 -3 0 -6 16 -5 43 3
23 8 43 14 45 14 1 1 2 -6 2 -14z m220 5 c0 -5 7 -7 15 -4 8 4 15 2 15 -4 0
-5 10 -12 22 -16 25 -6 16 -21 -17 -29 -11 -2 -5 -3 13 -1 17 1 32 -1 32 -6 0
-11 -123 -24 -156 -16 -15 4 -33 14 -41 21 -8 8 -23 15 -34 15 -25 0 -24 8 3
31 16 14 37 19 85 19 34 0 63 -4 63 -10z m261 -10 c0 9 2 11 5 3 3 -7 11 -10
18 -7 8 3 21 -3 31 -12 14 -15 18 -15 26 -3 7 12 9 12 9 -1 0 -8 9 -21 20 -28
11 -7 20 -17 20 -22 0 -12 -62 -9 -72 4 -3 5 -21 9 -40 9 -18 0 -39 4 -46 10
-7 5 -15 7 -18 4 -8 -7 -34 18 -34 32 0 13 63 19 72 6 5 -6 8 -4 9 5z m-451
-21 c0 -5 -4 -9 -10 -9 -5 0 -10 7 -10 16 0 8 5 12 10 9 6 -3 10 -10 10 -16z
m325 -19 c-3 -5 -12 -10 -18 -10 -7 0 -6 4 3 10 19 12 23 12 15 0z m-355 -65
c-7 -8 -26 -15 -42 -15 -16 0 -56 -9 -90 -21 -33 -11 -66 -18 -74 -15 -7 3
-18 -2 -24 -10 -7 -8 -19 -14 -26 -14 -8 0 -14 -4 -14 -10 0 -5 -8 -6 -17 -3
-14 5 -11 11 15 33 18 15 32 33 32 40 0 9 5 7 15 -6 14 -19 14 -19 15 1 0 14
3 16 9 7 6 -10 10 -10 21 2 7 9 16 13 21 10 5 -3 9 -1 9 3 0 14 66 34 94 29
14 -3 28 0 31 5 4 5 13 2 22 -6 12 -12 13 -19 3 -30z m414 28 c3 -4 23 -8 44
-9 20 -1 46 -4 57 -7 11 -3 23 -6 28 -6 4 -1 7 -5 7 -11 0 -5 9 -19 20 -30 12
-12 18 -25 14 -31 -4 -8 -10 -7 -17 0 -6 6 -18 11 -26 11 -9 0 -28 6 -42 14
-23 12 -63 25 -98 32 -8 1 -17 8 -21 15 -5 7 -13 8 -21 3 -12 -6 -12 -5 0 9
14 17 42 23 55 10z m276 -19 c12 -12 11 -14 -10 -14 -25 1 -60 21 -60 35 0 11
53 -4 70 -21z m-428 -6 c24 -24 16 -33 -42 -47 -43 -10 -42 -10 25 -6 54 3 64
1 45 -7 -14 -5 -65 -10 -113 -10 -70 0 -92 3 -107 17 -19 17 -29 72 -12 62 4
-3 16 -1 27 4 11 4 51 7 89 7 54 0 73 -5 88 -20z m-540 -40 c-7 -7 -12 -8 -12
-2 0 14 12 26 19 19 2 -3 -1 -11 -7 -17z m328 -18 c0 -5 -4 -10 -10 -10 -5 0
-10 5 -10 10 0 6 5 10 10 10 6 0 10 -4 10 -10z m155 -34 c40 -2 54 -12 48 -36
-4 -16 0 -20 18 -21 13 -1 0 -7 -30 -14 -36 -9 -62 -10 -78 -4 -13 5 -36 9
-50 9 -15 0 -23 3 -20 7 4 3 2 12 -3 18 -24 29 17 59 65 47 11 -3 33 -5 50 -6z
m170 -37 c-10 -15 -25 -10 -19 6 4 8 10 12 15 9 5 -3 7 -10 4 -15z m45 -9 c0
-5 8 -7 18 -5 24 4 54 -14 86 -52 22 -26 25 -36 17 -50 -7 -13 -10 -14 -11 -4
0 8 -3 12 -6 8 -4 -3 -13 0 -21 8 -8 8 -23 15 -34 15 -10 0 -19 5 -19 10 0 6
-6 10 -13 10 -7 0 -23 9 -34 19 -12 11 -24 17 -27 14 -3 -4 -6 0 -6 8 0 8 5
20 11 26 12 12 39 7 39 -7z m-300 -53 c0 10 87 2 108 -10 16 -10 16 -34 0 -40
-7 -3 -3 -6 10 -6 47 -2 9 -21 -41 -21 -73 0 -91 7 -106 40 -15 35 -7 57 15
39 8 -6 14 -7 14 -2z m179 -31 c-9 -8 -10 -7 -5 7 3 10 7 24 7 30 1 7 3 4 6
-7 3 -10 -1 -23 -8 -30z m-259 19 c10 -12 11 -18 1 -28 -7 -7 -15 -12 -19 -13
-14 -1 -62 -27 -62 -34 0 -6 -40 -29 -60 -35 -3 -1 -18 -7 -33 -13 -36 -15
-44 -15 -29 0 7 7 12 17 12 23 -1 9 -24 -24 -25 -35 -1 -12 -17 -30 -28 -30
-8 0 -8 3 1 12 7 7 8 17 1 30 -5 10 -8 18 -7 19 21 5 46 11 60 13 10 1 29 12
42 23 29 26 68 48 79 45 4 -1 7 5 7 13 0 9 6 12 15 9 8 -4 15 -1 15 5 0 16 15
14 30 -4z m337 -8 c-4 -10 2 -13 19 -9 14 2 24 0 24 -7 0 -7 4 -10 9 -6 16 9
59 -38 66 -73 7 -32 6 -33 -14 -23 -12 7 -21 16 -21 21 0 5 -7 7 -15 4 -8 -4
-15 -2 -15 4 0 5 -16 17 -36 27 -19 9 -38 23 -41 31 -7 18 3 44 18 44 6 0 9
-6 6 -13z m-606 -24 c-12 -20 -14 -14 -5 12 4 9 9 14 11 11 3 -2 0 -13 -6 -23z
m814 -33 c10 -11 14 -20 8 -20 -5 0 -18 9 -28 20 -10 11 -14 20 -8 20 5 0 18
-9 28 -20z m-541 -43 c-3 -9 -12 -17 -20 -17 -8 0 -14 -5 -14 -11 0 -5 -4 -8
-9 -5 -5 3 -11 -1 -15 -9 -3 -8 -14 -15 -24 -15 -11 0 -25 -7 -32 -15 -7 -9
-19 -14 -27 -11 -7 3 -13 2 -13 -3 0 -4 -11 -13 -25 -19 -14 -6 -25 -8 -25 -3
0 9 45 42 56 41 3 -1 15 10 27 23 12 13 30 27 40 30 9 4 17 11 17 17 0 5 9 10
19 10 11 0 23 5 27 11 10 16 26 -5 18 -24z m117 24 c17 -1 30 -9 37 -26 7 -15
20 -25 34 -26 19 -1 18 -3 -7 -9 -53 -13 -73 -11 -103 14 -34 29 -38 54 -8 51
12 -1 33 -3 47 -4z m231 -17 c21 -10 41 -32 56 -60 l22 -45 -47 25 c-55 28
-87 61 -79 82 7 18 8 17 48 -2z m198 -69 c0 -7 -26 2 -47 15 -13 8 -23 21 -23
28 0 8 13 3 35 -14 19 -14 35 -28 35 -29z m-540 7 c0 -5 -9 -20 -21 -33 -17
-20 -22 -21 -30 -9 -8 12 -9 11 -7 -4 2 -14 -8 -25 -37 -40 -22 -12 -43 -25
-47 -30 -8 -12 -38 -17 -38 -7 0 12 40 46 55 46 17 0 65 41 65 56 0 5 4 8 9 5
4 -3 17 1 27 9 23 17 24 17 24 7z m-210 -18 c0 -8 -4 -12 -10 -9 -5 3 -10 10
-10 16 0 5 5 9 10 9 6 0 10 -7 10 -16z m363 -3 c8 -8 6 -11 -6 -11 -22 0 -22
-17 1 -23 9 -3 3 -5 -15 -6 -33 -1 -63 20 -63 44 0 16 66 13 83 -4z m186 -20
c13 -13 19 -27 14 -32 -10 -10 -76 39 -68 51 8 13 29 6 54 -19z m141 12 c0 -5
-5 -15 -10 -23 -8 -13 -11 -13 -26 2 -16 16 -16 17 6 11 16 -4 21 -3 16 5 -4
7 -2 12 3 12 6 0 11 -3 11 -7z m-477 -60 c-16 -45 -73 -83 -73 -48 0 8 -4 15
-10 15 -14 0 -12 -28 3 -33 9 -3 9 -7 -1 -20 -18 -21 -61 -4 -62 25 0 9 61 39
69 34 3 -2 20 7 36 20 36 28 47 30 38 7z m137 7 c12 -8 11 -10 -7 -10 -13 0
-23 5 -23 10 0 13 11 13 30 0z m171 -28 c28 -26 38 -41 30 -46 -12 -8 -81 54
-81 73 0 17 5 14 51 -27z m69 24 c0 -3 -4 -8 -10 -11 -5 -3 -10 -1 -10 4 0 6
5 11 10 11 6 0 10 -2 10 -4z m50 -37 c6 -10 9 -19 6 -19 -9 0 -36 31 -36 41 0
14 18 1 30 -22z m-406 -14 c-5 -19 -3 -25 7 -23 8 2 17 8 21 13 9 12 10 -17 2
-39 -9 -23 -27 -20 -19 3 5 18 3 19 -24 8 -19 -7 -27 -15 -22 -22 6 -6 0 -17
-14 -27 -21 -16 -24 -16 -39 1 -15 16 -15 19 4 36 11 10 20 15 20 11 0 -4 14
9 31 29 37 42 41 43 33 10z m261 -11 c9 -14 14 -28 11 -31 -8 -9 -46 27 -46
44 0 21 16 15 35 -13z m-160 -24 c20 -7 26 -16 23 -33 -3 -25 -41 -35 -64 -17
-11 10 -14 9 -14 -4 0 -9 8 -17 18 -17 9 -1 26 -2 37 -3 23 -1 45 -14 45 -26
0 -14 -32 -21 -46 -9 -7 6 -18 8 -24 4 -5 -3 -10 1 -10 9 0 9 -7 16 -15 16 -8
0 -15 -4 -15 -10 0 -5 -7 -10 -15 -10 -8 0 -15 4 -15 10 0 5 -6 7 -14 4 -10
-4 -12 2 -8 21 2 15 7 23 11 18 12 -16 40 -10 47 10 5 17 24 45 31 47 1 0 14
-5 28 -10z m115 -25 c0 -5 -5 -3 -10 5 -5 8 -10 20 -10 25 0 6 5 3 10 -5 5 -8
10 -19 10 -25z m138 -1 c-4 -3 -12 5 -18 18 -12 22 -12 22 6 6 10 -10 15 -20
12 -24z m-189 2 c8 -10 9 -16 1 -21 -5 -3 -10 0 -10 7 0 9 -3 9 -10 -2 -8 -12
-10 -11 -10 8 0 25 12 29 29 8z"/>
<path d="M1596 1897 c3 -10 9 -15 12 -12 3 3 0 11 -7 18 -10 9 -11 8 -5 -6z"/>
<path d="M965 1740 c-3 -5 -2 -10 4 -10 5 0 13 5 16 10 3 6 2 10 -4 10 -5 0
-13 -4 -16 -10z"/>
<path d="M1070 1660 c0 -5 5 -10 11 -10 5 0 7 5 4 10 -3 6 -8 10 -11 10 -2 0
-4 -4 -4 -10z"/>
<path d="M1100 1658 c0 -4 12 -8 27 -8 14 0 23 3 19 7 -10 10 -46 11 -46 1z"/>
<path d="M1175 1510 c3 -5 8 -10 11 -10 2 0 4 5 4 10 0 6 -5 10 -11 10 -5 0
-7 -4 -4 -10z"/>
<path d="M914 769 c-3 -5 6 -9 20 -9 31 0 34 6 6 13 -11 3 -23 1 -26 -4z"/>
<path d="M1035 560 c-3 -5 -1 -10 4 -10 6 0 11 5 11 10 0 6 -2 10 -4 10 -3 0
-8 -4 -11 -10z"/>
<path d="M396 1927 c-26 -29 -55 -71 -65 -93 -53 -111 -61 -132 -61 -152 0
-11 -5 -33 -12 -47 -13 -29 -5 -44 14 -24 11 12 15 35 18 102 1 9 5 17 11 17
5 0 9 5 9 11 0 16 31 81 48 102 8 9 12 17 8 17 -9 0 13 31 54 76 17 20 30 38
27 40 -3 3 -26 -19 -51 -49z"/>
<path d="M260 1118 c0 -9 5 -20 10 -23 13 -8 13 5 0 25 -8 13 -10 13 -10 -2z"/>
<path d="M1661 1014 c0 -11 3 -14 6 -6 3 7 2 16 -1 19 -3 4 -6 -2 -5 -13z"/>
</g>
</svg>
